# This file uses centimeters as units for non-parametric coordinates.

mtllib scene_2.mtl
g default
v -6.994331 -0.000000 6.994331
v 6.994331 -0.000000 6.994331
v -6.994331 0.000000 -6.994331
v 6.994331 0.000000 -6.994331
vt 0.000000 0.000000
vt 1.000000 0.000000
vt 0.000000 0.863438
vt 1.000000 0.863438
vn 0.000000 1.000000 0.000000
vn 0.000000 1.000000 0.000000
vn 0.000000 1.000000 0.000000
vn 0.000000 1.000000 0.000000
s off
g pPlane1
usemtl blinn2SG
f 1/1/1 2/2/2 4/4/3 3/3/4
g default
v 5.647482 0.475034 -4.390908
v 5.556450 0.603841 -4.567145
v 5.355636 0.598218 -4.691963
v 5.162674 0.461458 -4.692247
v 5.090600 0.273673 -4.567830
v 5.181632 0.144865 -4.391593
v 5.382446 0.150489 -4.266774
v 5.575408 0.287249 -4.266491
v 5.837374 0.652145 -4.216382
v 5.664220 0.897152 -4.551603
v 5.282248 0.886455 -4.789022
v 4.915214 0.626322 -4.789562
v 4.778119 0.269134 -4.552905
v 4.951273 0.024128 -4.217684
v 5.333245 0.034824 -3.980265
v 5.700280 0.294957 -3.979725
v 5.941248 0.858618 -4.005512
v 5.702922 1.195841 -4.466905
v 5.177184 1.181119 -4.793685
v 4.672004 0.823076 -4.794427
v 4.483309 0.331449 -4.468698
v 4.721636 -0.005773 -4.007304
v 5.247374 0.008949 -3.680525
v 5.752554 0.366991 -3.679783
v 5.859689 1.277911 -3.558849
v 5.565101 1.694741 -4.129162
v 4.915253 1.676544 -4.533084
v 4.290816 1.233978 -4.534001
v 4.057578 0.626294 -4.131378
v 4.352165 0.209464 -3.561065
v 5.002013 0.227661 -3.157143
v 5.626450 0.670227 -3.156226
v 5.682239 1.449687 -3.366778
v 5.402069 1.846116 -3.909178
v 4.784027 1.828809 -4.293330
v 4.190152 1.407904 -4.294203
v 3.968329 0.829962 -3.911285
v 4.248497 0.433533 -3.368885
v 4.866540 0.450840 -2.984733
v 5.460415 0.871745 -2.983860
v 5.390161 0.344621 -4.512009
v 4.745925 1.251541 -3.516389
v 5.522925 1.528655 -3.273578
v 5.269605 1.887094 -3.763999
v 4.710791 1.871445 -4.111337
v 4.173828 1.490877 -4.112126
v 3.973262 0.968320 -3.765904
v 4.226583 0.609881 -3.275483
v 4.785397 0.625529 -2.928145
v 5.322360 1.006098 -2.927356
vt 0.338216 0.695973
vt 0.318225 0.666725
vt 0.284125 0.659622
vt 0.255902 0.678829
vt 0.250091 0.713093
vt 0.270095 0.742343
vt 0.304195 0.749444
vt 0.332415 0.730237
vt 0.382441 0.686153
vt 0.341513 0.627891
vt 0.272842 0.614520
vt 0.216659 0.653879
vt 0.205877 0.722911
vt 0.246811 0.781177
vt 0.315483 0.794545
vt 0.371664 0.755182
vt 0.427293 0.674924
vt 0.364239 0.587573
vt 0.260138 0.568731
vt 0.175968 0.629441
vt 0.161034 0.734139
vt 0.224084 0.821494
vt 0.328184 0.840334
vt 0.412354 0.779620
vt 0.519442 0.649995
vt 0.409629 0.503359
vt 0.232186 0.474577
vt 0.091050 0.580497
vt 0.068888 0.759069
vt 0.178677 0.905698
vt 0.356113 0.934494
vt 0.497261 0.828583
vt 0.914065 0.505735
vt 0.703469 0.583961
vt 0.498793 0.499676
vt 0.416216 0.302482
vt 0.493244 0.100870
vt 0.699983 0.011127
vt 0.908497 0.103073
vt 0.992370 0.301547
vt 0.294154 0.704534
vt 0.701734 0.299464
vt 0.864365 0.454419
vt 0.703943 0.508336
vt 0.544792 0.454590
vt 0.475769 0.300710
vt 0.532708 0.139392
vt 0.699514 0.076516
vt 0.863780 0.148163
vt 0.935376 0.302043
vt 0.541564 0.855192
vt 0.568261 0.637761
vt 0.369943 0.984349
vt 0.153936 0.949597
vt 0.020066 0.771305
vt 0.046738 0.553902
vt 0.218336 0.424727
vt 0.434356 0.459453
vn 0.687973 -0.477671 -0.546373
vn 0.597280 -0.349343 -0.721953
vn 0.705139 -0.056754 -0.706794
vn 0.877845 -0.301125 -0.372441
vn 0.597280 -0.349343 -0.721953
vn 0.397214 -0.354945 -0.846307
vn 0.324159 -0.067423 -0.943597
vn 0.705139 -0.056754 -0.706794
vn 0.397214 -0.354945 -0.846307
vn 0.204971 -0.491196 -0.846589
vn -0.041924 -0.326881 -0.944135
vn 0.324159 -0.067423 -0.943597
vn 0.204971 -0.491196 -0.846589
vn 0.133164 -0.678281 -0.722635
vn -0.178663 -0.683143 -0.708093
vn -0.041924 -0.326881 -0.944135
vn 0.133164 -0.678281 -0.722635
vn 0.223858 -0.806609 -0.547055
vn -0.005958 -0.927514 -0.373740
vn -0.178663 -0.683143 -0.708093
vn 0.223858 -0.806609 -0.547055
vn 0.423924 -0.801007 -0.422702
vn 0.375023 -0.916846 -0.136937
vn -0.005958 -0.927514 -0.373740
vn 0.423924 -0.801007 -0.422702
vn 0.616167 -0.664756 -0.422419
vn 0.741106 -0.657387 -0.136399
vn 0.375023 -0.916846 -0.136937
vn 0.616167 -0.664756 -0.422419
vn 0.687973 -0.477671 -0.546373
vn 0.877845 -0.301125 -0.372441
vn 0.741106 -0.657387 -0.136399
vn 0.877845 -0.301125 -0.372441
vn 0.705139 -0.056754 -0.706794
vn 0.744275 0.242070 -0.622460
vn 0.982289 -0.094711 -0.161670
vn 0.705139 -0.056754 -0.706794
vn 0.324159 -0.067423 -0.943597
vn 0.219224 0.227367 -0.948812
vn 0.744275 0.242070 -0.622460
vn 0.324159 -0.067423 -0.943597
vn -0.041924 -0.326881 -0.944135
vn -0.285296 -0.130207 -0.949554
vn 0.219224 0.227367 -0.948812
vn -0.041924 -0.326881 -0.944135
vn -0.178663 -0.683143 -0.708093
vn -0.473743 -0.621191 -0.624251
vn -0.285296 -0.130207 -0.949554
vn -0.178663 -0.683143 -0.708093
vn -0.005958 -0.927514 -0.373740
vn -0.235729 -0.957973 -0.163461
vn -0.473743 -0.621191 -0.624251
vn -0.005958 -0.927514 -0.373740
vn 0.375023 -0.916846 -0.136937
vn 0.289322 -0.943270 0.162892
vn -0.235729 -0.957973 -0.163461
vn 0.375023 -0.916846 -0.136937
vn 0.741106 -0.657387 -0.136399
vn 0.793842 -0.585696 0.163633
vn 0.289322 -0.943270 0.162892
vn 0.741106 -0.657387 -0.136399
vn 0.877845 -0.301125 -0.372441
vn 0.982289 -0.094711 -0.161670
vn 0.793842 -0.585696 0.163633
vn 0.710374 0.517704 -0.476814
vn 0.606468 0.742639 -0.284049
vn 0.901056 0.325809 0.286264
vn 0.982289 -0.094711 -0.161670
vn 0.092547 0.500403 -0.860832
vn -0.043380 0.724441 -0.687970
vn 0.606468 0.742639 -0.284049
vn 0.744275 0.242070 -0.622460
vn -0.501121 0.079645 -0.861704
vn -0.667817 0.281876 -0.688888
vn -0.043380 0.724441 -0.687970
vn 0.219224 0.227367 -0.948812
vn -0.722867 -0.498095 -0.478920
vn -0.901056 -0.325808 -0.286265
vn -0.667817 0.281876 -0.688888
vn -0.285296 -0.130207 -0.949554
vn -0.442796 -0.894386 0.063291
vn -0.606468 -0.742639 0.284049
vn -0.901056 -0.325808 -0.286265
vn -0.473743 -0.621191 -0.624251
vn 0.175031 -0.877085 0.447309
vn 0.043380 -0.724441 0.687970
vn -0.606468 -0.742639 0.284049
vn -0.235729 -0.957973 -0.163461
vn 0.768699 -0.456327 0.448182
vn 0.667817 -0.281876 0.688888
vn 0.043380 -0.724441 0.687970
vn 0.289322 -0.943270 0.162892
vn 0.982289 -0.094711 -0.161670
vn 0.901056 0.325809 0.286264
vn 0.667817 -0.281876 0.688888
vn 0.793842 -0.585696 0.163633
vn 0.901056 0.325809 0.286264
vn 0.606468 0.742639 -0.284049
vn 0.442795 0.894386 -0.063291
vn 0.722867 0.498095 0.478920
vn 0.606468 0.742639 -0.284049
vn -0.043380 0.724441 -0.687970
vn -0.175032 0.877086 -0.447309
vn 0.442795 0.894386 -0.063291
vn -0.043380 0.724441 -0.687970
vn -0.667817 0.281876 -0.688888
vn -0.768699 0.456328 -0.448181
vn -0.175032 0.877086 -0.447309
vn -0.667817 0.281876 -0.688888
vn -0.901056 -0.325808 -0.286265
vn -0.990445 -0.121413 -0.065397
vn -0.768699 0.456328 -0.448181
vn -0.901056 -0.325808 -0.286265
vn -0.606468 -0.742639 0.284049
vn -0.710374 -0.517704 0.476814
vn -0.990445 -0.121413 -0.065397
vn -0.606468 -0.742639 0.284049
vn 0.043380 -0.724441 0.687970
vn -0.092547 -0.500403 0.860832
vn -0.710374 -0.517704 0.476814
vn 0.043380 -0.724441 0.687970
vn 0.667817 -0.281876 0.688888
vn 0.501121 -0.079645 0.861704
vn -0.092547 -0.500403 0.860832
vn 0.667817 -0.281876 0.688888
vn 0.901056 0.325809 0.286264
vn 0.722867 0.498095 0.478920
vn 0.501121 -0.079645 0.861704
vn 0.597280 -0.349343 -0.721953
vn 0.687973 -0.477671 -0.546373
vn 0.431528 -0.607481 -0.666896
vn 0.397214 -0.354945 -0.846307
vn 0.597280 -0.349343 -0.721953
vn 0.431528 -0.607481 -0.666896
vn 0.204971 -0.491196 -0.846589
vn 0.397214 -0.354945 -0.846307
vn 0.431528 -0.607481 -0.666896
vn 0.133164 -0.678281 -0.722635
vn 0.204971 -0.491196 -0.846589
vn 0.431528 -0.607481 -0.666896
vn 0.223858 -0.806609 -0.547055
vn 0.133164 -0.678281 -0.722635
vn 0.431528 -0.607481 -0.666896
vn 0.423924 -0.801007 -0.422702
vn 0.223858 -0.806609 -0.547055
vn 0.431528 -0.607481 -0.666896
vn 0.616167 -0.664756 -0.422419
vn 0.423924 -0.801007 -0.422702
vn 0.431528 -0.607481 -0.666896
vn 0.687973 -0.477671 -0.546373
vn 0.616167 -0.664756 -0.422419
vn 0.431528 -0.607481 -0.666896
vn -0.431528 0.607481 0.666896
vn 0.174238 0.683551 0.708801
vn -0.426806 0.613230 0.664670
vn -0.431528 0.607481 0.666896
vn -0.875689 0.303913 0.375240
vn -0.704060 0.061063 0.707510
vn -0.431528 0.607481 0.666896
vn -0.325452 0.071665 0.942839
vn 0.038351 0.329508 0.943374
vn -0.431528 0.607481 0.666896
vn -0.375999 0.915798 0.141203
vn -0.739802 0.657956 0.140668
vn -0.428932 0.606382 0.669565
vn 0.038351 0.329508 0.943374
vn 0.174238 0.683551 0.708801
vn -0.431528 0.607481 0.666896
vn 0.002609 0.926400 0.376531
vn -0.375999 0.915798 0.141203
vn -0.431528 0.607481 0.666896
vn -0.739802 0.657956 0.140668
vn -0.875689 0.303913 0.375240
vn -0.431528 0.607481 0.666896
vn -0.704060 0.061063 0.707510
vn -0.325452 0.071665 0.942839
vn 0.722867 0.498095 0.478920
vn 0.442795 0.894386 -0.063291
vn 0.002609 0.926400 0.376531
vn 0.174238 0.683551 0.708801
vn 0.442795 0.894386 -0.063291
vn -0.175032 0.877086 -0.447309
vn -0.375999 0.915798 0.141203
vn 0.002609 0.926400 0.376531
vn -0.175032 0.877086 -0.447309
vn -0.768699 0.456328 -0.448181
vn -0.739802 0.657956 0.140668
vn -0.375999 0.915798 0.141203
vn -0.768699 0.456328 -0.448181
vn -0.990445 -0.121413 -0.065397
vn -0.875689 0.303913 0.375240
vn -0.739802 0.657956 0.140668
vn -0.990445 -0.121413 -0.065397
vn -0.710374 -0.517704 0.476814
vn -0.704060 0.061063 0.707510
vn -0.875689 0.303913 0.375240
vn -0.710374 -0.517704 0.476814
vn -0.092547 -0.500403 0.860832
vn -0.325452 0.071665 0.942839
vn -0.704060 0.061063 0.707510
vn -0.092547 -0.500403 0.860832
vn 0.501121 -0.079645 0.861704
vn 0.038351 0.329508 0.943374
vn -0.325452 0.071665 0.942839
vn 0.501121 -0.079645 0.861704
vn 0.722867 0.498095 0.478920
vn 0.174238 0.683551 0.708801
vn 0.038351 0.329508 0.943374
s off
g pSphere1
usemtl blinn1SG
f 5/5/5 6/6/6 14/14/7 13/13/8
f 6/6/9 7/7/10 15/15/11 14/14/12
f 7/7/13 8/8/14 16/16/15 15/15/16
f 8/8/17 9/9/18 17/17/19 16/16/20
f 9/9/21 10/10/22 18/18/23 17/17/24
f 10/10/25 11/11/26 19/19/27 18/18/28
f 11/11/29 12/12/30 20/20/31 19/19/32
f 12/12/33 5/5/34 13/13/35 20/20/36
f 13/13/37 14/14/38 22/22/39 21/21/40
f 14/14/41 15/15/42 23/23/43 22/22/44
f 15/15/45 16/16/46 24/24/47 23/23/48
f 16/16/49 17/17/50 25/25/51 24/24/52
f 17/17/53 18/18/54 26/26/55 25/25/56
f 18/18/57 19/19/58 27/27/59 26/26/60
f 19/19/61 20/20/62 28/28/63 27/27/64
f 20/20/65 13/13/66 21/21/67 28/28/68
f 22/22/69 30/30/70 29/29/71 21/21/72
f 23/23/73 31/31/74 30/30/75 22/22/76
f 24/24/77 32/32/78 31/31/79 23/23/80
f 25/25/81 33/33/82 32/32/83 24/24/84
f 26/26/85 34/34/86 33/33/87 25/25/88
f 27/27/89 35/35/90 34/34/91 26/26/92
f 28/28/93 36/36/94 35/35/95 27/27/96
f 21/21/97 29/29/98 36/36/99 28/28/100
f 29/29/101 30/30/102 38/62/103 37/56/104
f 30/30/105 31/31/106 39/61/107 38/62/108
f 31/31/109 32/32/110 40/60/111 39/61/112
f 32/32/113 33/33/114 41/59/115 40/60/116
f 33/33/117 34/34/118 42/58/119 41/59/120
f 34/34/121 35/35/122 43/57/123 42/58/124
f 35/35/125 36/36/126 44/55/127 43/57/128
f 36/36/129 29/29/130 37/56/131 44/55/132
f 6/6/133 5/5/134 45/45/135
f 7/7/136 6/6/137 45/45/138
f 8/8/139 7/7/140 45/45/141
f 9/9/142 8/8/143 45/45/144
f 10/10/145 9/9/146 45/45/147
f 11/11/148 10/10/149 45/45/150
f 12/12/151 11/11/152 45/45/153
f 5/5/154 12/12/155 45/45/156
f 46/46/157 47/47/158 48/48/159
f 46/46/160 51/51/161 52/52/162
f 46/46/163 53/53/164 54/54/165
f 46/46/166 49/49/167 50/50/168
f 46/46/169 54/54/170 47/47/171
f 46/46/172 48/48/173 49/49/174
f 46/46/175 50/50/176 51/51/177
f 46/46/178 52/52/179 53/53/180
f 37/37/181 38/38/182 48/48/183 47/47/184
f 38/38/185 39/39/186 49/49/187 48/48/188
f 39/39/189 40/40/190 50/50/191 49/49/192
f 40/40/193 41/41/194 51/51/195 50/50/196
f 41/41/197 42/42/198 52/52/199 51/51/200
f 42/42/201 43/43/202 53/53/203 52/52/204
f 43/43/205 44/44/206 54/54/207 53/53/208
f 44/44/209 37/37/210 47/47/211 54/54/212
g default
v -3.819012 0.029531 0.668776
v -6.912162 0.029531 3.761926
v -3.819012 0.029531 6.855076
v -0.725863 0.029531 3.761926
v -3.819012 4.145036 3.761926
vt 1.000000 0.000000
vt 0.000000 0.000000
vt 0.000000 1.000000
vt 1.000000 1.000000
vt 0.000000 0.000000
vt 0.300000 0.000000
vt 0.500000 0.000000
vt 0.700000 0.000000
vt 1.000000 0.000000
vt 0.500000 1.000000
vn 0.000000 -1.000000 0.000000
vn 0.000000 -1.000000 0.000000
vn 0.000000 -1.000000 0.000000
vn 0.000000 -1.000000 0.000000
vn -0.624405 0.469293 -0.624405
vn -0.624405 0.469293 -0.624405
vn -0.624405 0.469293 -0.624405
vn -0.624405 0.469293 0.624405
vn -0.624405 0.469293 0.624405
vn -0.624405 0.469293 0.624405
vn 0.624405 0.469293 0.624405
vn 0.624405 0.469293 0.624405
vn 0.624405 0.469293 0.624405
vn 0.624405 0.469293 -0.624405
vn 0.624405 0.469293 -0.624405
vn 0.624405 0.469293 -0.624405
s off
g pPyramid1
usemtl blinn3SG
f 55/63/213 58/66/214 57/65/215 56/64/216
f 55/67/217 56/68/218 59/72/219
f 56/68/220 57/69/221 59/72/222
f 57/69/223 58/70/224 59/72/225
f 58/70/226 55/71/227 59/72/228
